<?xml version="1.0" encoding="UTF-8" standalone="no"?>
<!-- Created with Inkscape (http://www.inkscape.org/) -->

<svg
   width="512"
   height="512"
   viewBox="0 0 512 512"
   version="1.1"
   id="svg1"
   inkscape:version="1.3.2 (091e20e, 2023-11-25, custom)"
   sodipodi:docname="atsumari.svg"
   xmlns:inkscape="http://www.inkscape.org/namespaces/inkscape"
   xmlns:sodipodi="http://sodipodi.sourceforge.net/DTD/sodipodi-0.dtd"
   xmlns="http://www.w3.org/2000/svg"
   xmlns:svg="http://www.w3.org/2000/svg">
  <sodipodi:namedview
     id="namedview1"
     pagecolor="#505050"
     bordercolor="#eeeeee"
     borderopacity="1"
     inkscape:showpageshadow="0"
     inkscape:pageopacity="0"
     inkscape:pagecheckerboard="0"
     inkscape:deskcolor="#505050"
     inkscape:document-units="px"
     inkscape:zoom="1"
     inkscape:cx="402"
     inkscape:cy="337.5"
     inkscape:window-width="1920"
     inkscape:window-height="1009"
     inkscape:window-x="1358"
     inkscape:window-y="-8"
     inkscape:window-maximized="1"
     inkscape:current-layer="layer1" />
  <defs
     id="defs1" />
  <g
     inkscape:label="Camada 1"
     inkscape:groupmode="layer"
     id="layer1">
    <circle
       style="fill:#ffa600;fill-opacity:1"
       id="path1"
       cx="256"
       cy="256"
       r="256" />
    <path
       sodipodi:type="star"
       style="fill:#291d63;fill-opacity:1"
       id="path2"
       inkscape:flatsided="false"
       sodipodi:sides="5"
       sodipodi:cx="256"
       sodipodi:cy="256"
       sodipodi:r1="256"
       sodipodi:r2="112.39102"
       sodipodi:arg1="-1.5707963"
       sodipodi:arg2="-1.3897544"
       inkscape:rounded="0.20315729"
       inkscape:randomized="0"
       d="m 256.00001,0 c 26.88396,-12.932942 -3.89039,127.8987 20.23651,145.44583 37.03937,26.93817 191.59742,-1.67079 223.23395,31.44583 20.60756,21.57167 -122.84109,35.82289 -132.07378,64.19129 -14.17392,43.55089 60.79588,181.70368 39.07633,222.0254 C 392.32523,489.37332 334.44344,357.34942 304.61043,357.33493 258.81108,357.31269 150.58692,471.30477 105.52697,463.10835 76.175591,457.76932 183.85133,361.92283 174.6462,333.54548 160.51458,289.98084 18.65856,222.27904 12.529534,176.89164 8.5371777,147.32697 132.96623,220.11449 157.11016,202.59081 194.17568,175.68863 214.728,19.854526 256.00001,0 Z"
       inkscape:transform-center-y="-24.445825" />
  </g>
</svg>
